<svg width="132" height="27" viewBox="0 0 132 27" fill="none" xmlns="http://www.w3.org/2000/svg">
<path d="M23.1913 21.6682L18.4133 16.8902C19.5636 15.3588 20.1846 13.4948 20.1825 11.5795C20.1825 6.68727 16.2023 2.70703 11.31 2.70703C6.41773 2.70703 2.4375 6.68727 2.4375 11.5795C2.4375 16.4718 6.41773 20.452 11.31 20.452C13.2253 20.4541 15.0893 19.8331 16.6207 18.6828L21.3987 23.4608C21.6406 23.677 21.956 23.7924 22.2803 23.7834C22.6046 23.7743 22.9131 23.6414 23.1425 23.412C23.3719 23.1826 23.5048 22.8741 23.5138 22.5498C23.5229 22.2256 23.4075 21.9101 23.1913 21.6682ZM4.9725 11.5795C4.9725 10.3261 5.34419 9.1008 6.04056 8.05861C6.73693 7.01641 7.72672 6.20412 8.88474 5.72444C10.0428 5.24477 11.317 5.11927 12.5464 5.3638C13.7757 5.60834 14.905 6.21193 15.7913 7.09824C16.6776 7.98456 17.2812 9.11379 17.5257 10.3431C17.7703 11.5725 17.6448 12.8468 17.1651 14.0048C16.6854 15.1628 15.8731 16.1526 14.8309 16.849C13.7887 17.5453 12.5634 17.917 11.31 17.917C9.62981 17.915 8.01901 17.2467 6.83094 16.0586C5.64286 14.8705 4.97452 13.2597 4.9725 11.5795Z" fill="white"/>
<path d="M74.9375 23.0195C75.835 23.0195 76.5625 22.292 76.5625 21.3945C76.5625 20.4971 75.835 19.7695 74.9375 19.7695C74.04 19.7695 73.3125 20.4971 73.3125 21.3945C73.3125 22.292 74.04 23.0195 74.9375 23.0195Z" fill="white"/>
<path d="M86.3125 23.0195C87.21 23.0195 87.9375 22.292 87.9375 21.3945C87.9375 20.4971 87.21 19.7695 86.3125 19.7695C85.415 19.7695 84.6875 20.4971 84.6875 21.3945C84.6875 22.292 85.415 23.0195 86.3125 23.0195Z" fill="white"/>
<path d="M89.1969 6.40289C89.0827 6.26327 88.9389 6.15081 88.7759 6.07369C88.6129 5.99657 88.4347 5.95672 88.2544 5.95703H72.7991L72.4878 4.19086C72.4546 4.00273 72.3562 3.83231 72.2098 3.70954C72.0635 3.58677 71.8785 3.51949 71.6875 3.51953H68.4375C68.222 3.51953 68.0153 3.60513 67.863 3.75751C67.7106 3.90988 67.625 4.11654 67.625 4.33203C67.625 4.54752 67.7106 4.75418 67.863 4.90656C68.0153 5.05893 68.222 5.14453 68.4375 5.14453H71.006L73.3247 18.2857C73.3579 18.4738 73.4563 18.6443 73.6027 18.767C73.749 18.8898 73.934 18.9571 74.125 18.957H87.125C87.3405 18.957 87.5472 18.8714 87.6995 18.7191C87.8519 18.5667 87.9375 18.36 87.9375 18.1445C87.9375 17.929 87.8519 17.7224 87.6995 17.57C87.5472 17.4176 87.3405 17.332 87.125 17.332H74.8065L74.5201 15.707H86.7919C87.0736 15.7067 87.3466 15.609 87.5647 15.4305C87.7827 15.252 87.9323 15.0036 87.9883 14.7275L89.4508 7.41496C89.486 7.23799 89.4815 7.0554 89.4376 6.88038C89.3937 6.70536 89.3115 6.54227 89.1969 6.40289Z" fill="white"/>
</svg>
